<svg width="98" height="34" viewBox="0 0 98 34" fill="none" xmlns="http://www.w3.org/2000/svg">
<g clip-path="url(#clip0_875_95)">
<path d="M39.941 0C40.7037 0.00161594 41.4664 0.00323187 42.2292 0.00484781C42.3698 0.00484781 42.512 0.00161594 42.6525 0C43.9711 0.0355506 45.2881 0.0953402 46.6035 0.208456C47.6684 0.298948 48.7317 0.416911 49.7917 0.559114C51.1879 0.746562 52.5744 0.982489 53.9544 1.26205C55.0775 1.48989 56.1941 1.75167 57.3026 2.03931C58.6632 2.3932 60.0109 2.79072 61.3441 3.2351C62.9358 3.76513 64.5032 4.35656 66.048 5.0094C69.0618 6.28114 71.9607 7.77426 74.7515 9.48069C74.9971 9.63097 75.2395 9.78449 75.4722 9.95739C75.086 9.78125 74.7014 9.60189 74.3136 9.42898C72.2096 8.48851 70.0685 7.64337 67.8886 6.8952C66.0093 6.25044 64.1057 5.68163 62.1843 5.17746C60.6654 4.77994 59.1351 4.43251 57.5951 4.12548C56.1375 3.83623 54.6719 3.58576 53.2014 3.3773C51.4028 3.1236 49.5978 2.92969 47.788 2.78587C44.9342 2.55964 42.0773 2.50147 39.2171 2.56287C37.6545 2.59681 36.0951 2.68568 34.5373 2.81173C33.1719 2.92323 31.8112 3.06543 30.4538 3.23833C29.3162 3.38377 28.1818 3.56152 27.0507 3.75543C24.79 4.14326 22.5487 4.62804 20.33 5.20816C18.3521 5.72526 16.3968 6.31831 14.4674 6.99054C12.0451 7.83405 9.66808 8.78907 7.34598 9.87821C7.28134 9.90891 7.21347 9.93154 7.14722 9.95739C7.14722 9.95739 7.14722 9.95739 7.15045 9.95901C7.15206 9.95416 7.15368 9.94608 7.15691 9.94446C7.83399 9.49362 8.5353 9.08317 9.23824 8.67596C10.5423 7.9197 11.8706 7.20869 13.2231 6.54454C15.4709 5.44247 17.7736 4.47129 20.1345 3.63585C21.8652 3.02341 23.6168 2.48531 25.3944 2.02477C26.8535 1.64664 28.3257 1.3186 29.8091 1.04713C30.7092 0.882301 31.6125 0.732019 32.519 0.60436C33.6049 0.450846 34.6957 0.331267 35.7897 0.232695C37.1697 0.108268 38.5545 0.0420143 39.941 0Z" fill="#CF1E2E"/>
<path fill-rule="evenodd" clip-rule="evenodd" d="M97.9822 15.0992V12.4507H84.7412V20.3946H95.3337V23.0431H84.7412C84.7412 23.7703 84.7412 24.6429 84.7412 25.6917H97.9822V17.7477H87.3897V15.0992H97.9822Z" fill="#1B438B"/>
<path fill-rule="evenodd" clip-rule="evenodd" d="M5.29704 17.7477H10.5925V15.0992L2.64852 15.1008V23.0448L13.241 23.0415V25.69L0 25.6917V12.4539L10.5925 12.4523V12.4507H13.241V20.3946H5.29704V17.7477Z" fill="#1B438B"/>
<path fill-rule="evenodd" clip-rule="evenodd" d="M26.4819 15.0992H18.5379V23.0431H26.4819V15.0992ZM29.1304 33.9378H26.4819V25.6917H15.8894V12.4507H29.1304V33.9378Z" fill="#1B438B"/>
<path fill-rule="evenodd" clip-rule="evenodd" d="M45.0183 25.6917V12.4507H42.3714V23.0431H34.4259V12.4507H31.7773V25.6917H45.0183Z" fill="#1B438B"/>
<path d="M50.3153 12.4507H47.6667V25.6917H50.3153V12.4507Z" fill="#1B438B"/>
<path fill-rule="evenodd" clip-rule="evenodd" d="M52.9639 4.50684H55.6124V12.454L66.2048 12.4508V15.0993L55.6124 15.088V15.0993V23.0432H66.2048V25.6917H52.9639V4.50684Z" fill="#1B438B"/>
<path fill-rule="evenodd" clip-rule="evenodd" d="M76.7974 17.7477V20.3946H71.5003V23.0431H79.4459V15.0992H68.8518V12.4507H82.0928V23.0431V25.6917H68.8518V17.7477H76.7974Z" fill="#1B438B"/>
<path d="M31.7773 29.1614H33.9362V29.7383H32.511V30.64H33.815V31.2168H32.511V32.243H33.9459V32.8199H31.7773V29.163V29.1614Z" fill="#CF1E2E"/>
<path d="M36.4037 32.5079H36.394C36.1483 32.8069 35.9011 32.8796 35.6021 32.8796C34.7586 32.8796 34.4548 32.1993 34.4548 31.4592C34.4548 30.7191 34.7586 30.0549 35.6021 30.0549C35.9997 30.0549 36.2566 30.223 36.4247 30.5009H36.4344V30.118H37.105V33.9154H36.4037V32.5063V32.5079ZM35.1885 31.4608C35.1885 31.8325 35.3194 32.335 35.7799 32.335C36.2404 32.335 36.3972 31.8422 36.3972 31.4608C36.3972 31.0794 36.2194 30.6011 35.7686 30.6011C35.3177 30.6011 35.1869 31.0988 35.1869 31.4608H35.1885Z" fill="#CF1E2E"/>
<path d="M40.3079 32.8165H39.6422V32.4497H39.6309C39.4159 32.7115 39.1122 32.8796 38.7453 32.8796C38.1054 32.8796 37.8291 32.4287 37.8291 31.8211V30.1179H38.5304V31.5593C38.5304 31.889 38.5353 32.335 38.9861 32.335C39.4935 32.335 39.6034 31.7856 39.6034 31.4398V30.1195H40.3047V32.8181L40.3079 32.8165Z" fill="#CF1E2E"/>
<path d="M41.0464 28.9561H41.7477V29.6267H41.0464V28.9561ZM41.0464 30.1195H41.7477V32.8181H41.0464V30.1195Z" fill="#CF1E2E"/>
<path d="M42.7189 30.6334H42.2002V30.1196H42.7189V29.5798L43.4202 29.3552V30.1196H44.044V30.6334H43.4202V31.8906C43.4202 32.1217 43.4832 32.335 43.7499 32.335C43.8759 32.335 43.9955 32.3092 44.0698 32.2623L44.0908 32.8182C43.9438 32.8602 43.7822 32.8812 43.5721 32.8812C43.0227 32.8812 42.7189 32.5402 42.7189 32.007V30.635V30.6334Z" fill="#CF1E2E"/>
<path d="M44.6466 30.26C44.9197 30.134 45.2865 30.0564 45.5839 30.0564C46.4064 30.0564 46.7474 30.3974 46.7474 31.1924V31.5382C46.7474 31.8113 46.7522 32.0149 46.7587 32.2137C46.7635 32.4173 46.7748 32.6063 46.7894 32.8164H46.1705C46.1446 32.6742 46.1446 32.4965 46.1398 32.4124H46.1285C45.9669 32.7114 45.6146 32.8794 45.2962 32.8794C44.8195 32.8794 44.3525 32.5918 44.3525 32.0779C44.3525 31.6739 44.5465 31.438 44.8131 31.3071C45.0797 31.1762 45.4255 31.1504 45.7196 31.1504H46.1074C46.1074 30.7157 45.9135 30.5686 45.4999 30.5686C45.2009 30.5686 44.902 30.6834 44.6676 30.8627L44.6466 30.26ZM45.4692 32.3656C45.6841 32.3656 45.8521 32.2718 45.962 32.1248C46.0767 31.9729 46.1091 31.779 46.1091 31.5689H45.8053C45.4902 31.5689 45.0248 31.6206 45.0248 32.0359C45.0248 32.267 45.2187 32.3656 45.4708 32.3656H45.4692Z" fill="#CF1E2E"/>
<path d="M49.042 30.685C48.8271 30.6123 48.6704 30.5703 48.4134 30.5703C48.2244 30.5703 47.9997 30.6381 47.9997 30.8692C47.9997 31.2991 49.2198 31.026 49.2198 32.0004C49.2198 32.629 48.659 32.8811 48.0886 32.8811C47.822 32.8811 47.5489 32.8342 47.292 32.7663L47.334 32.1894C47.5538 32.2993 47.7848 32.3672 48.0256 32.3672C48.2034 32.3672 48.4861 32.2993 48.4861 32.0375C48.4861 31.5091 47.2661 31.8695 47.2661 30.8951C47.2661 30.3133 47.7735 30.0564 48.3245 30.0564C48.6542 30.0564 48.8691 30.1081 49.0889 30.1566L49.042 30.685Z" fill="#CF1E2E"/>
<path d="M53.2498 29.8318C53.0188 29.7316 52.7618 29.6751 52.5065 29.6751C52.2512 29.6751 51.9296 29.785 51.9296 30.1825C51.9296 30.8159 53.5326 30.5493 53.5326 31.7742C53.5326 32.5757 52.8992 32.8795 52.1607 32.8795C51.7632 32.8795 51.5838 32.8278 51.2235 32.7373L51.2913 32.078C51.5434 32.2137 51.831 32.3026 52.1187 32.3026C52.4063 32.3026 52.7683 32.162 52.7683 31.8307C52.7683 31.1343 51.1653 31.4219 51.1653 30.2116C51.1653 29.3939 51.7987 29.095 52.4435 29.095C52.757 29.095 53.0511 29.137 53.3177 29.2259L53.2498 29.8286V29.8318Z" fill="#CF1E2E"/>
<path d="M54.124 30.1194H54.7785V30.4959H54.7898C55.0096 30.1663 55.3295 30.0564 55.5913 30.0564C55.9678 30.0564 56.2361 30.1986 56.3879 30.5331C56.5495 30.2083 56.9018 30.0564 57.2315 30.0564C57.8972 30.0564 58.0847 30.5121 58.0847 31.1148V32.818H57.3834V31.2102C57.3834 30.9581 57.3834 30.6026 56.9794 30.6026C56.5124 30.6026 56.4558 31.1585 56.4558 31.5091V32.818H55.7545V31.2102C55.7545 30.9581 55.7545 30.6026 55.3505 30.6026C54.8835 30.6026 54.827 31.1585 54.827 31.5091V32.818H54.1256V30.1194H54.124Z" fill="#CF1E2E"/>
<path d="M58.9136 30.26C59.1867 30.134 59.5535 30.0564 59.8509 30.0564C60.6734 30.0564 61.0143 30.3974 61.0143 31.1924V31.5382C61.0143 31.8113 61.0192 32.0149 61.024 32.2137C61.0289 32.4173 61.0402 32.6063 61.0547 32.8164H60.4358C60.41 32.6742 60.41 32.4965 60.4051 32.4124H60.3938C60.2322 32.7114 59.88 32.8794 59.5616 32.8794C59.0849 32.8794 58.6179 32.5918 58.6179 32.0779C58.6179 31.6739 58.8118 31.438 59.0785 31.3071C59.3451 31.1762 59.6909 31.1504 59.985 31.1504H60.3728C60.3728 30.7157 60.1789 30.5686 59.7652 30.5686C59.4663 30.5686 59.1673 30.6834 58.933 30.8627L58.912 30.26H58.9136ZM59.7361 32.3656C59.9511 32.3656 60.1191 32.2718 60.229 32.1248C60.3437 31.9729 60.3761 31.779 60.3761 31.5689H60.0723C59.7572 31.5689 59.2918 31.6206 59.2918 32.0359C59.2918 32.267 59.4857 32.3656 59.7378 32.3656H59.7361Z" fill="#CF1E2E"/>
<path d="M61.7222 28.8882H62.4235V32.8165H61.7222V28.8882Z" fill="#CF1E2E"/>
<path d="M63.1782 28.8882H63.8795V32.8165H63.1782V28.8882Z" fill="#CF1E2E"/>
<path d="M66.1387 29.1614H68.1715V29.7383H66.8723V30.64H68.1085V31.2168H66.8723V32.8199H66.1387V29.163V29.1614Z" fill="#CF1E2E"/>
<path d="M68.7112 28.9561H69.4125V29.6267H68.7112V28.9561ZM68.7112 30.1195H69.4125V32.8181H68.7112V30.1195Z" fill="#CF1E2E"/>
<path d="M70.1526 30.1194H70.8184V30.4862H70.828C71.0478 30.1776 71.3468 30.0564 71.7136 30.0564C72.3535 30.0564 72.6298 30.5072 72.6298 31.1148V32.818H71.9285V31.3782C71.9285 31.0486 71.9237 30.6026 71.4728 30.6026C70.9654 30.6026 70.8539 31.152 70.8539 31.4978V32.818H70.1526V30.1194Z" fill="#CF1E2E"/>
<path d="M73.475 30.26C73.7481 30.134 74.1133 30.0564 74.4122 30.0564C75.2348 30.0564 75.5757 30.3974 75.5757 31.1924V31.5382C75.5757 31.8113 75.5806 32.0149 75.587 32.2137C75.5919 32.4173 75.6032 32.6063 75.6194 32.8164H75.0005C74.9746 32.6742 74.9746 32.4965 74.9697 32.4124H74.9584C74.7952 32.7114 74.4446 32.8794 74.1246 32.8794C73.6479 32.8794 73.1809 32.5918 73.1809 32.0779C73.1809 31.6739 73.3748 31.438 73.6415 31.3071C73.9081 31.1762 74.2539 31.1504 74.548 31.1504H74.9358C74.9358 30.7157 74.7419 30.5686 74.3282 30.5686C74.0293 30.5686 73.7303 30.6834 73.496 30.8627L73.475 30.26ZM74.2975 32.3656C74.5124 32.3656 74.6805 32.2718 74.7904 32.1248C74.9051 31.9729 74.9374 31.779 74.9374 31.5689H74.6336C74.3185 31.5689 73.8531 31.6206 73.8531 32.0359C73.8531 32.267 74.0471 32.3656 74.2991 32.3656H74.2975Z" fill="#CF1E2E"/>
<path d="M76.2673 30.1194H76.9331V30.4862H76.9428C77.1626 30.1776 77.4615 30.0564 77.8283 30.0564C78.4682 30.0564 78.7446 30.5072 78.7446 31.1148V32.818H78.0432V31.3782C78.0432 31.0486 78.0384 30.6026 77.5876 30.6026C77.0802 30.6026 76.9686 31.152 76.9686 31.4978V32.818H76.2673V30.1194Z" fill="#CF1E2E"/>
<path d="M81.2186 30.7013C81.0925 30.6431 80.9568 30.6011 80.7419 30.6011C80.3072 30.6011 80.0292 30.9469 80.0292 31.4543C80.0292 31.9617 80.2652 32.335 80.758 32.335C80.9568 32.335 81.1765 32.2623 81.2977 32.209L81.3301 32.7907C81.1264 32.8537 80.9164 32.8796 80.6287 32.8796C79.7432 32.8796 79.2988 32.2768 79.2988 31.4543C79.2988 30.6318 79.7594 30.0549 80.6029 30.0549C80.8857 30.0549 81.0893 30.0856 81.2832 30.1438L81.2202 30.6997L81.2186 30.7013Z" fill="#CF1E2E"/>
<path d="M83.9575 32.6647C83.7006 32.8053 83.4081 32.8796 83.0299 32.8796C82.1396 32.8796 81.6208 32.3657 81.6208 31.4802C81.6208 30.6997 82.0345 30.0549 82.8732 30.0549C83.8735 30.0549 84.1562 30.7417 84.1562 31.6838H82.2915C82.3238 32.1185 82.626 32.3641 83.0623 32.3641C83.4032 32.3641 83.6957 32.2381 83.9575 32.091V32.6614V32.6647ZM83.4856 31.2022C83.4646 30.8613 83.3079 30.5688 82.9152 30.5688C82.5225 30.5688 82.3238 30.8419 82.2915 31.2022H83.4856Z" fill="#CF1E2E"/>
<path d="M86.2278 29.1614H87.506C87.9778 29.1614 88.684 29.2971 88.684 30.0986C88.684 30.5333 88.3899 30.8371 87.9552 30.9163V30.926C88.4529 30.9728 88.7939 31.309 88.7939 31.7598C88.7939 32.6825 87.9665 32.8182 87.506 32.8182H86.2278V29.1614ZM86.9614 30.6383H87.2604C87.569 30.6383 87.952 30.5705 87.952 30.1923C87.952 29.7674 87.5803 29.7366 87.2442 29.7366H86.9614V30.6383ZM86.9614 32.2413H87.3072C87.6482 32.2413 88.0619 32.1573 88.0619 31.7339C88.0619 31.2572 87.674 31.1845 87.3072 31.1845H86.9614V32.243V32.2413Z" fill="#CF1E2E"/>
<path d="M89.4856 30.26C89.7587 30.134 90.1239 30.0564 90.4228 30.0564C91.2454 30.0564 91.5863 30.3974 91.5863 31.1924V31.5382C91.5863 31.8113 91.5912 32.0149 91.5976 32.2137C91.6025 32.4173 91.6138 32.6063 91.6299 32.8164H91.011C90.9852 32.6742 90.9852 32.4965 90.9803 32.4124H90.9706C90.8074 32.7114 90.4568 32.8794 90.1368 32.8794C89.6601 32.8794 89.1931 32.5918 89.1931 32.0779C89.1931 31.6739 89.387 31.438 89.6537 31.3071C89.9203 31.1762 90.2661 31.1504 90.5602 31.1504H90.948C90.948 30.7157 90.7541 30.5686 90.3404 30.5686C90.0415 30.5686 89.7425 30.6834 89.5066 30.8627L89.4856 30.26ZM90.3081 32.3656C90.523 32.3656 90.6911 32.2718 90.801 32.1248C90.9157 31.9729 90.948 31.779 90.948 31.5689H90.6442C90.3291 31.5689 89.8637 31.6206 89.8637 32.0359C89.8637 32.267 90.0576 32.3656 90.3097 32.3656H90.3081Z" fill="#CF1E2E"/>
<path d="M92.2795 30.1194H92.9453V30.4862H92.9566C93.1764 30.1776 93.4753 30.0564 93.8421 30.0564C94.4821 30.0564 94.7584 30.5072 94.7584 31.1148V32.818H94.0571V31.3782C94.0571 31.0486 94.0522 30.6026 93.6014 30.6026C93.094 30.6026 92.9825 31.152 92.9825 31.4978V32.818H92.2812V30.1194H92.2795Z" fill="#CF1E2E"/>
<path d="M95.4954 28.8882H96.1967V31.199H96.2064L97.045 30.1195H97.8724L96.8673 31.325L97.9984 32.8181H97.1081L96.208 31.5092H96.1983V32.8181H95.497V28.8898L95.4954 28.8882Z" fill="#CF1E2E"/>
</g>
<defs>
<clipPath id="clip0_875_95">
<rect width="98" height="33.9379" fill="white"/>
</clipPath>
</defs>
</svg>
