<svg width="289" height="38" viewBox="0 0 289 38" fill="none" xmlns="http://www.w3.org/2000/svg">
<path d="M50.3145 28.8186V9.76989H52.849V19.2169L62.3517 9.76989H65.7821L57.7538 17.4873L66.1338 28.8186H62.793L55.9807 19.1769L52.849 22.2191V28.8186H50.3145ZM76.9953 27.1157C76.1221 27.8518 75.2843 28.3709 74.4827 28.6765C73.6765 28.9783 72.8119 29.1289 71.89 29.1289C70.3661 29.1289 69.1988 28.7611 68.3791 28.0202C67.5638 27.2797 67.154 26.3306 67.154 25.1818C67.154 24.5032 67.3053 23.8868 67.617 23.3279C67.9246 22.7695 68.3304 22.3212 68.8292 21.9841C69.3325 21.6474 69.8938 21.3897 70.5222 21.2172C70.9811 21.0974 71.6762 20.9776 72.6071 20.8664C74.5047 20.6402 75.9035 20.3746 76.7992 20.0594C76.8082 19.7401 76.8127 19.5361 76.8127 19.452C76.8127 18.4982 76.5896 17.8243 76.1441 17.4384C75.5474 16.9059 74.6518 16.6447 73.4712 16.6447C72.3664 16.6447 71.5511 16.8351 71.021 17.2211C70.4954 17.6071 70.1079 18.2899 69.8539 19.27L67.5593 18.9548C67.769 17.9791 68.1118 17.1854 68.5886 16.5866C69.0652 15.9836 69.7604 15.5178 70.6645 15.1941C71.5692 14.8704 72.6161 14.7064 73.8096 14.7064C74.9949 14.7064 75.9526 14.8481 76.6923 15.1233C77.4318 15.4029 77.9756 15.7488 78.3274 16.1698C78.6749 16.5914 78.9155 17.119 79.0578 17.7621C79.1337 18.1612 79.1737 18.8798 79.1737 19.9174V23.0355C79.1737 25.2126 79.2225 26.5877 79.3252 27.1599C79.4229 27.7364 79.6236 28.291 79.9176 28.8186H77.4628C77.2226 28.3353 77.0622 27.7672 76.9953 27.1157ZM76.7992 21.891C75.9436 22.2414 74.6652 22.5341 72.9632 22.778C71.9965 22.9157 71.3104 23.0707 70.9141 23.2437C70.5132 23.4167 70.2014 23.6695 69.9876 24.0066C69.7694 24.3393 69.6576 24.7075 69.6576 25.1154C69.6576 25.7407 69.8983 26.2598 70.3703 26.6766C70.843 27.089 71.5376 27.2973 72.451 27.2973C73.3556 27.2973 74.1619 27.1023 74.8656 26.7074C75.5693 26.3129 76.0907 25.7718 76.4206 25.0887C76.6746 24.5611 76.7992 23.7803 76.7992 22.7513V21.891ZM82.7911 28.8186V15.0212H84.9032V17.1098C85.4422 16.1342 85.941 15.487 86.3999 15.1766C86.8544 14.8662 87.3576 14.7064 87.9056 14.7064C88.6986 14.7064 89.5007 14.9594 90.3202 15.4603L89.5097 17.6338C88.9393 17.2919 88.3645 17.1232 87.7897 17.1232C87.273 17.1232 86.8142 17.2786 86.4041 17.5848C85.9946 17.8949 85.7048 18.3209 85.5309 18.8665C85.2683 19.696 85.139 20.605 85.139 21.594V28.8186H82.7911ZM91.7193 28.8186V15.0212H93.8311V16.9815C94.8513 15.4645 96.3213 14.7064 98.2415 14.7064C99.0789 14.7064 99.8451 14.8571 100.545 15.1541C101.249 15.4559 101.77 15.8461 102.117 16.3338C102.469 16.8176 102.71 17.3942 102.852 18.0591C102.937 18.4938 102.982 19.2525 102.982 20.3346V28.8186H100.63V20.4229C100.63 19.4739 100.54 18.7601 100.357 18.2853C100.175 17.8152 99.8499 17.4384 99.3863 17.1588C98.9184 16.8751 98.3752 16.7331 97.7469 16.7331C96.7444 16.7331 95.8846 17.0524 95.1541 17.6821C94.4279 18.3166 94.0671 19.5139 94.0671 21.2832V28.8186H91.7193ZM115.63 27.1157C114.757 27.8518 113.919 28.3709 113.117 28.6765C112.311 28.9783 111.446 29.1289 110.524 29.1289C109 29.1289 107.833 28.7611 107.013 28.0202C106.198 27.2797 105.788 26.3306 105.788 25.1818C105.788 24.5032 105.94 23.8868 106.251 23.3279C106.559 22.7695 106.965 22.3212 107.464 21.9841C107.967 21.6474 108.528 21.3897 109.157 21.2172C109.615 21.0974 110.31 20.9776 111.241 20.8664C113.139 20.6402 114.538 20.3746 115.433 20.0594C115.443 19.7401 115.447 19.5361 115.447 19.452C115.447 18.4982 115.224 17.8243 114.779 17.4384C114.182 16.9059 113.286 16.6447 112.105 16.6447C111.001 16.6447 110.185 16.8351 109.655 17.2211C109.13 17.6071 108.742 18.2899 108.488 19.27L106.194 18.9548C106.403 17.9791 106.746 17.1854 107.223 16.5866C107.699 15.9836 108.395 15.5178 109.299 15.1941C110.203 14.8704 111.251 14.7064 112.444 14.7064C113.629 14.7064 114.587 14.8481 115.327 15.1233C116.066 15.4029 116.61 15.7488 116.962 16.1698C117.309 16.5914 117.55 17.119 117.692 17.7621C117.768 18.1612 117.808 18.8798 117.808 19.9174V23.0355C117.808 25.2126 117.857 26.5877 117.959 27.1599C118.057 27.7364 118.258 28.291 118.552 28.8186H116.097C115.857 28.3353 115.697 27.7672 115.63 27.1157ZM115.433 21.891C114.578 22.2414 113.299 22.5341 111.597 22.778C110.631 22.9157 109.945 23.0707 109.549 23.2437C109.147 23.4167 108.836 23.6695 108.622 24.0066C108.404 24.3393 108.292 24.7075 108.292 25.1154C108.292 25.7407 108.532 26.2598 109.005 26.6766C109.477 27.089 110.172 27.2973 111.085 27.2973C111.99 27.2973 112.796 27.1023 113.5 26.7074C114.204 26.3129 114.725 25.7718 115.055 25.0887C115.309 24.5611 115.433 23.7803 115.433 22.7513V21.891ZM126.58 26.7252L126.919 28.7919C126.259 28.9294 125.667 29.0006 125.145 29.0006C124.29 29.0006 123.631 28.8675 123.158 28.5967C122.691 28.3309 122.361 27.976 122.17 27.5369C121.978 27.1023 121.88 26.18 121.88 24.7783V16.8395H120.156V15.0212H121.88V11.6015L124.219 10.2004V15.0212H126.58V16.8395H124.219V24.9066C124.219 25.5767 124.259 26.0021 124.339 26.1931C124.424 26.3837 124.558 26.5345 124.744 26.6499C124.932 26.7607 125.199 26.8183 125.547 26.8183C125.81 26.8183 126.152 26.7872 126.58 26.7252ZM137.923 27.1157C137.05 27.8518 136.212 28.3709 135.41 28.6765C134.604 28.9783 133.739 29.1289 132.818 29.1289C131.294 29.1289 130.126 28.7611 129.307 28.0202C128.491 27.2797 128.081 26.3306 128.081 25.1818C128.081 24.5032 128.233 23.8868 128.545 23.3279C128.852 22.7695 129.258 22.3212 129.757 21.9841C130.26 21.6474 130.821 21.3897 131.45 21.2172C131.908 21.0974 132.603 20.9776 133.535 20.8664C135.432 20.6402 136.831 20.3746 137.726 20.0594C137.736 19.7401 137.74 19.5361 137.74 19.452C137.74 18.4982 137.517 17.8243 137.072 17.4384C136.475 16.9059 135.579 16.6447 134.398 16.6447C133.294 16.6447 132.478 16.8351 131.948 17.2211C131.423 17.6071 131.035 18.2899 130.781 19.27L128.487 18.9548C128.696 17.9791 129.039 17.1854 129.516 16.5866C129.993 15.9836 130.688 15.5178 131.592 15.1941C132.496 14.8704 133.544 14.7064 134.737 14.7064C135.922 14.7064 136.88 14.8481 137.62 15.1233C138.359 15.4029 138.903 15.7488 139.255 16.1698C139.602 16.5914 139.843 17.119 139.985 17.7621C140.061 18.1612 140.101 18.8798 140.101 19.9174V23.0355C140.101 25.2126 140.15 26.5877 140.252 27.1599C140.35 27.7364 140.551 28.291 140.845 28.8186H138.39C138.15 28.3353 137.99 27.7672 137.923 27.1157ZM137.726 21.891C136.871 22.2414 135.593 22.5341 133.891 22.778C132.924 22.9157 132.238 23.0707 131.842 23.2437C131.44 23.4167 131.129 23.6695 130.915 24.0066C130.697 24.3393 130.585 24.7075 130.585 25.1154C130.585 25.7407 130.826 26.2598 131.298 26.6766C131.77 27.089 132.465 27.2973 133.378 27.2973C134.283 27.2973 135.089 27.1023 135.793 26.7074C136.497 26.3129 137.018 25.7718 137.348 25.0887C137.602 24.5611 137.726 23.7803 137.726 22.7513V21.891ZM143.754 28.8186V9.76989H146.107V20.6317L151.666 15.0212H154.705L149.408 20.1392L155.244 28.8186H152.344L147.764 21.7623L146.107 23.3502V28.8186H143.754ZM166.154 27.1157C165.281 27.8518 164.443 28.3709 163.642 28.6765C162.836 28.9783 161.971 29.1289 161.049 29.1289C159.525 29.1289 158.358 28.7611 157.538 28.0202C156.723 27.2797 156.313 26.3306 156.313 25.1818C156.313 24.5032 156.464 23.8868 156.776 23.3279C157.084 22.7695 157.489 22.3212 157.988 21.9841C158.491 21.6474 159.053 21.3897 159.681 21.2172C160.14 21.0974 160.835 20.9776 161.766 20.8664C163.664 20.6402 165.063 20.3746 165.958 20.0594C165.967 19.7401 165.971 19.5361 165.971 19.452C165.971 18.4982 165.749 17.8243 165.303 17.4384C164.706 16.9059 163.811 16.6447 162.63 16.6447C161.525 16.6447 160.71 16.8351 160.18 17.2211C159.654 17.6071 159.267 18.2899 159.013 19.27L156.718 18.9548C156.928 17.9791 157.271 17.1854 157.748 16.5866C158.224 15.9836 158.919 15.5178 159.824 15.1941C160.728 14.8704 161.775 14.7064 162.969 14.7064C164.154 14.7064 165.112 14.8481 165.851 15.1233C166.591 15.4029 167.134 15.7488 167.486 16.1698C167.834 16.5914 168.075 17.119 168.217 17.7621C168.293 18.1612 168.333 18.8798 168.333 19.9174V23.0355C168.333 25.2126 168.382 26.5877 168.484 27.1599C168.582 27.7364 168.783 28.291 169.077 28.8186H166.622C166.382 28.3353 166.221 27.7672 166.154 27.1157ZM165.958 21.891C165.103 22.2414 163.824 22.5341 162.122 22.778C161.156 22.9157 160.469 23.0707 160.073 23.2437C159.672 23.4167 159.36 23.6695 159.147 24.0066C158.928 24.3393 158.817 24.7075 158.817 25.1154C158.817 25.7407 159.057 26.2598 159.529 26.6766C160.002 27.089 160.697 27.2973 161.61 27.2973C162.515 27.2973 163.321 27.1023 164.025 26.7074C164.728 26.3129 165.25 25.7718 165.58 25.0887C165.834 24.5611 165.958 23.7803 165.958 22.7513V21.891ZM179.595 28.8186V9.76989H186.777C188.238 9.76989 189.41 9.96529 190.292 10.3469C191.178 10.7322 191.869 11.327 192.368 12.1296C192.867 12.928 193.121 13.766 193.121 14.6442C193.121 15.4559 192.898 16.2231 192.452 16.9418C192.011 17.6602 191.339 18.241 190.443 18.6845C191.601 19.0215 192.488 19.5978 193.112 20.4096C193.735 21.2257 194.047 22.1881 194.047 23.2969C194.047 24.1886 193.856 25.0179 193.477 25.7851C193.098 26.5525 192.631 27.1423 192.074 27.5592C191.517 27.976 190.817 28.2863 189.98 28.4992C189.142 28.7121 188.113 28.8186 186.893 28.8186H179.595ZM182.13 17.7754H186.269C187.387 17.7754 188.194 17.7002 188.683 17.5538C189.325 17.3628 189.811 17.0482 190.136 16.6047C190.461 16.1609 190.626 15.6068 190.626 14.9412C190.626 14.3115 190.475 13.7526 190.171 13.2739C189.864 12.7903 189.428 12.4622 188.866 12.285C188.3 12.1073 187.329 12.019 185.953 12.019H182.13V17.7754ZM182.13 26.5702H186.893C187.712 26.5702 188.287 26.5391 188.616 26.4812C189.2 26.3748 189.686 26.2019 190.078 25.958C190.47 25.7184 190.791 25.3638 191.045 24.9025C191.294 24.4367 191.423 23.9047 191.423 23.2969C191.423 22.5874 191.241 21.9711 190.875 21.443C190.51 20.9197 190.002 20.5519 189.352 20.339C188.706 20.1303 187.77 20.0238 186.554 20.0238H182.13V26.5702ZM206.276 27.1157C205.403 27.8518 204.565 28.3709 203.764 28.6765C202.957 28.9783 202.093 29.1289 201.171 29.1289C199.647 29.1289 198.48 28.7611 197.66 28.0202C196.845 27.2797 196.435 26.3306 196.435 25.1818C196.435 24.5032 196.586 23.8868 196.898 23.3279C197.206 22.7695 197.611 22.3212 198.11 21.9841C198.613 21.6474 199.175 21.3897 199.803 21.2172C200.262 21.0974 200.957 20.9776 201.888 20.8664C203.786 20.6402 205.184 20.3746 206.08 20.0594C206.089 19.7401 206.094 19.5361 206.094 19.452C206.094 18.4982 205.871 17.8243 205.425 17.4384C204.828 16.9059 203.933 16.6447 202.752 16.6447C201.647 16.6447 200.832 16.8351 200.302 17.2211C199.776 17.6071 199.389 18.2899 199.135 19.27L196.84 18.9548C197.05 17.9791 197.393 17.1854 197.87 16.5866C198.346 15.9836 199.041 15.5178 199.945 15.1941C200.85 14.8704 201.897 14.7064 203.091 14.7064C204.276 14.7064 205.234 14.8481 205.973 15.1233C206.713 15.4029 207.257 15.7488 207.608 16.1698C207.956 16.5914 208.196 17.119 208.339 17.7621C208.415 18.1612 208.455 18.8798 208.455 19.9174V23.0355C208.455 25.2126 208.503 26.5877 208.606 27.1599C208.704 27.7364 208.905 28.291 209.199 28.8186H206.744C206.503 28.3353 206.343 27.7672 206.276 27.1157ZM206.08 21.891C205.225 22.2414 203.946 22.5341 202.244 22.778C201.277 22.9157 200.591 23.0707 200.195 23.2437C199.794 23.4167 199.482 23.6695 199.269 24.0066C199.05 24.3393 198.939 24.7075 198.939 25.1154C198.939 25.7407 199.179 26.2598 199.651 26.6766C200.124 27.089 200.819 27.2973 201.732 27.2973C202.637 27.2973 203.443 27.1023 204.147 26.7074C204.85 26.3129 205.372 25.7718 205.701 25.0887C205.955 24.5611 206.08 23.7803 206.08 22.7513V21.891ZM212.099 28.8186V15.0212H214.211V16.9815C215.231 15.4645 216.701 14.7064 218.621 14.7064C219.458 14.7064 220.225 14.8571 220.924 15.1541C221.628 15.4559 222.15 15.8461 222.497 16.3338C222.849 16.8176 223.09 17.3942 223.232 18.0591C223.316 18.4938 223.361 19.2525 223.361 20.3346V28.8186H221.009V20.4229C221.009 19.4739 220.92 18.7601 220.737 18.2853C220.555 17.8152 220.23 17.4384 219.766 17.1588C219.298 16.8751 218.755 16.7331 218.127 16.7331C217.124 16.7331 216.264 17.0524 215.534 17.6821C214.808 18.3166 214.447 19.5139 214.447 21.2832V28.8186H212.099ZM226.975 28.8186V9.76989H229.327V20.6317L234.887 15.0212H237.925L232.628 20.1392L238.464 28.8186H235.563L230.984 21.7623L229.327 23.3502V28.8186H226.975ZM247.949 28.8186V9.76989H250.483V26.5702H259.906V28.8186H247.949ZM267.751 26.7252L268.09 28.7919C267.431 28.9294 266.838 29.0006 266.317 29.0006C265.462 29.0006 264.802 28.8675 264.33 28.5967C263.862 28.3309 263.533 27.976 263.341 27.5369C263.149 27.1023 263.051 26.18 263.051 24.7783V16.8395H261.327V15.0212H263.051V11.6015L265.39 10.2004V15.0212H267.751V16.8395H265.39V24.9066C265.39 25.5767 265.43 26.0021 265.51 26.1931C265.595 26.3837 265.729 26.5345 265.916 26.6499C266.103 26.7607 266.37 26.8183 266.718 26.8183C266.981 26.8183 267.324 26.7872 267.751 26.7252ZM279.041 28.8186V27.0757C278.163 28.4459 276.871 29.1289 275.165 29.1289C274.06 29.1289 273.044 28.8275 272.117 28.2197C271.191 27.6167 270.474 26.7697 269.961 25.6784C269.453 24.5921 269.199 23.3458 269.199 21.931C269.199 20.556 269.431 19.3056 269.89 18.1834C270.353 17.0616 271.044 16.2008 271.966 15.6068C272.888 15.0079 273.922 14.7064 275.062 14.7064C275.895 14.7064 276.639 14.8838 277.29 15.2341C277.945 15.5842 278.475 16.0411 278.884 16.6047V9.76989H281.219V28.8186H279.041ZM271.614 21.931C271.614 23.7004 271.988 25.0222 272.737 25.8957C273.485 26.7697 274.367 27.2088 275.388 27.2088C276.412 27.2088 277.285 26.7872 278.002 25.9538C278.72 25.1195 279.081 23.8426 279.081 22.1264C279.081 20.2367 278.715 18.8532 277.985 17.9706C277.254 17.0832 276.354 16.6447 275.281 16.6447C274.238 16.6447 273.365 17.0701 272.665 17.9174C271.966 18.7644 271.614 20.1036 271.614 21.931ZM285.581 28.8186V26.1534H288.258V28.8186H285.581Z" fill="#92278F" stroke="#92278F" stroke-width="1.47126"/>
<mask id="path-2-inside-1_5230_929" fill="white">
<path d="M179.253 32.2042H180.641L181.458 33.6185L182.274 32.2042H183.654L182.081 34.6386V36.3927H180.828V34.6386L179.253 32.2042ZM183.646 34.8842C183.646 34.4218 183.797 34.0397 184.099 33.7402C184.401 33.4398 184.807 33.2898 185.321 33.2898C185.908 33.2898 186.351 33.466 186.65 33.8183C186.892 34.1021 187.012 34.4522 187.012 34.8675C187.012 35.3339 186.862 35.7159 186.564 36.0145C186.265 36.3119 185.852 36.4613 185.324 36.4613C184.852 36.4613 184.472 36.3371 184.182 36.0894C183.824 35.7835 183.646 35.3814 183.646 34.8842ZM184.772 34.8813C184.772 35.1521 184.825 35.3522 184.931 35.481C185.037 35.6103 185.169 35.6757 185.329 35.6757C185.492 35.6757 185.624 35.6112 185.728 35.4839C185.832 35.356 185.884 35.1521 185.884 34.8694C185.884 34.607 185.831 34.4111 185.727 34.2824C185.622 34.1545 185.492 34.0904 185.338 34.0904C185.174 34.0904 185.039 34.1555 184.932 34.2851C184.826 34.4159 184.772 34.615 184.772 34.8813ZM190.923 36.3925H189.874V35.9011C189.718 36.1032 189.561 36.2471 189.402 36.3321C189.242 36.4177 189.046 36.4611 188.815 36.4611C188.506 36.4611 188.263 36.3655 188.088 36.174C187.913 35.9828 187.825 35.6878 187.825 35.2896V33.359H188.953V35.0271C188.953 35.2177 188.987 35.3531 189.055 35.4331C189.124 35.5129 189.219 35.5529 189.342 35.5529C189.476 35.5529 189.586 35.4995 189.672 35.3931C189.757 35.2856 189.8 35.0946 189.8 34.8184V33.359H190.923V36.3925ZM191.897 33.359H192.949V33.8551C193.051 33.6409 193.155 33.4925 193.263 33.4117C193.37 33.3305 193.502 33.2896 193.66 33.2896C193.826 33.2896 194.007 33.3432 194.204 33.4496L193.857 34.2786C193.725 34.2209 193.619 34.1927 193.542 34.1927C193.395 34.1927 193.281 34.2557 193.2 34.3807C193.085 34.5584 193.026 34.8898 193.026 35.3756V36.3925H191.897V33.359ZM197.301 32.2039H200.392V33.1043H198.556V33.8356H200.123V34.6811H198.556V36.3925H197.301V32.2039ZM202.15 34.3407L201.078 34.2239C201.118 34.0295 201.176 33.8765 201.253 33.7652C201.329 33.6542 201.439 33.5575 201.582 33.4759C201.685 33.4165 201.827 33.3702 202.007 33.3386C202.187 33.3061 202.382 33.2896 202.592 33.2896C202.928 33.2896 203.199 33.309 203.403 33.348C203.607 33.3869 203.778 33.4692 203.913 33.5927C204.009 33.6787 204.084 33.7996 204.14 33.9568C204.195 34.1145 204.222 34.2639 204.222 34.4069V35.7472C204.222 35.8893 204.232 36.0013 204.248 36.0828C204.266 36.1634 204.304 36.2667 204.363 36.3925H203.309C203.267 36.3146 203.24 36.2552 203.226 36.2144C203.214 36.173 203.201 36.1088 203.188 36.0209C203.041 36.1681 202.894 36.2727 202.749 36.335C202.55 36.4187 202.319 36.4611 202.057 36.4611C201.708 36.4611 201.442 36.3769 201.26 36.209C201.08 36.0423 200.989 35.8355 200.989 35.5899C200.989 35.3589 201.054 35.1698 201.185 35.0215C201.316 34.8721 201.556 34.7619 201.907 34.6896C202.329 34.6021 202.602 34.5409 202.728 34.5057C202.852 34.4705 202.984 34.4234 203.124 34.367C203.124 34.2239 203.096 34.1241 203.039 34.0666C202.982 34.01 202.882 33.981 202.738 33.981C202.554 33.981 202.417 34.012 202.325 34.0729C202.253 34.1203 202.194 34.2101 202.15 34.3407ZM203.124 34.9521C202.97 35.01 202.808 35.0604 202.642 35.1046C202.414 35.1668 202.269 35.2292 202.209 35.2896C202.146 35.3531 202.115 35.4246 202.115 35.5043C202.115 35.596 202.146 35.6701 202.207 35.7286C202.269 35.7862 202.36 35.8151 202.479 35.8151C202.604 35.8151 202.72 35.7843 202.828 35.7216C202.936 35.6582 203.012 35.5811 203.057 35.4914C203.102 35.4006 203.124 35.2829 203.124 35.1383L203.124 34.9521ZM205.186 33.359H206.235V33.8014C206.386 33.616 206.538 33.4854 206.691 33.4065C206.845 33.3286 207.03 33.2896 207.248 33.2896C207.481 33.2896 207.666 33.3323 207.801 33.4184C207.939 33.504 208.049 33.6317 208.136 33.8014C208.312 33.6038 208.473 33.4682 208.619 33.3969C208.764 33.3257 208.943 33.2896 209.157 33.2896C209.471 33.2896 209.717 33.3861 209.893 33.5805C210.07 33.7733 210.158 34.0755 210.158 34.4872V36.3925H209.033V34.6644C209.033 34.5272 209.007 34.4245 208.955 34.3584C208.879 34.2539 208.785 34.2015 208.674 34.2015C208.542 34.2015 208.434 34.2509 208.353 34.3495C208.273 34.4493 208.233 34.608 208.233 34.8276V36.3925H207.107V34.7211C207.107 34.5876 207.099 34.4975 207.085 34.4501C207.061 34.3741 207.019 34.3124 206.961 34.2658C206.902 34.2187 206.833 34.1953 206.753 34.1953C206.624 34.1953 206.519 34.2462 206.436 34.3465C206.353 34.4482 206.312 34.6136 206.312 34.8442V36.3925H205.186V33.359ZM211.152 32.2039H212.276V32.9957H211.152V32.2039ZM211.152 33.359H212.276V36.3925H211.152V33.359ZM213.314 32.2039H214.44V36.3925H213.314V32.2039ZM215.212 33.359H216.398L217.002 35.3783L217.563 33.359H218.669L217.507 36.6013C217.375 36.971 217.239 37.2205 217.101 37.3493C216.906 37.5328 216.61 37.624 216.21 37.624C216.048 37.624 215.799 37.6007 215.46 37.555L215.372 36.7437C215.533 36.7975 215.714 36.8237 215.913 36.8237C216.044 36.8237 216.152 36.7923 216.234 36.7299C216.316 36.6668 216.385 36.5546 216.442 36.3925L215.212 33.359ZM221.892 32.2039H224.232C224.622 32.2039 224.922 32.3048 225.13 32.5043C225.339 32.7045 225.444 32.9522 225.444 33.2467C225.444 33.4944 225.369 33.7068 225.22 33.8845C225.121 34.0025 224.976 34.0959 224.784 34.1645C225.075 34.2362 225.288 34.3614 225.426 34.5366C225.563 34.7134 225.631 34.9348 225.631 35.201C225.631 35.4183 225.582 35.6137 225.485 35.787C225.387 35.9605 225.254 36.0969 225.085 36.1986C224.98 36.2609 224.822 36.3065 224.611 36.335C224.328 36.3732 224.142 36.3925 224.05 36.3925H221.892V32.2039ZM223.153 33.8475H223.697C223.892 33.8475 224.027 33.8123 224.105 33.7429C224.181 33.6725 224.219 33.5723 224.219 33.4417C224.219 33.32 224.181 33.2244 224.105 33.1559C224.027 33.0866 223.895 33.0524 223.705 33.0524H223.153V33.8475ZM223.153 35.4925H223.791C224.006 35.4925 224.159 35.4535 224.245 35.3745C224.334 35.2956 224.378 35.1892 224.378 35.0557C224.378 34.9315 224.335 34.8323 224.248 34.7571C224.16 34.6821 224.007 34.644 223.788 34.644H223.153V35.4925ZM227.516 34.3407L226.444 34.2239C226.484 34.0295 226.543 33.8765 226.619 33.7652C226.695 33.6542 226.805 33.5575 226.949 33.4759C227.051 33.4165 227.193 33.3702 227.373 33.3386C227.553 33.3061 227.748 33.2896 227.958 33.2896C228.295 33.2896 228.566 33.309 228.769 33.348C228.974 33.3869 229.144 33.4692 229.28 33.5927C229.376 33.6787 229.45 33.7996 229.507 33.9568C229.561 34.1145 229.589 34.2639 229.589 34.4069V35.7472C229.589 35.8893 229.598 36.0013 229.615 36.0828C229.632 36.1634 229.671 36.2667 229.73 36.3925H228.676C228.633 36.3146 228.606 36.2552 228.593 36.2144C228.58 36.173 228.568 36.1088 228.554 36.0209C228.407 36.1681 228.26 36.2727 228.116 36.335C227.916 36.4187 227.686 36.4611 227.423 36.4611C227.074 36.4611 226.809 36.3769 226.627 36.209C226.446 36.0423 226.355 35.8355 226.355 35.5899C226.355 35.3589 226.42 35.1698 226.551 35.0215C226.682 34.8721 226.922 34.7619 227.274 34.6896C227.696 34.6021 227.969 34.5409 228.094 34.5057C228.218 34.4705 228.351 34.4234 228.49 34.367C228.49 34.2239 228.462 34.1241 228.406 34.0666C228.348 34.01 228.248 33.981 228.104 33.981C227.92 33.981 227.783 34.012 227.691 34.0729C227.619 34.1203 227.56 34.2101 227.516 34.3407ZM228.49 34.9521C228.336 35.01 228.175 35.0604 228.008 35.1046C227.781 35.1668 227.635 35.2292 227.575 35.2896C227.512 35.3531 227.481 35.4246 227.481 35.5043C227.481 35.596 227.512 35.6701 227.573 35.7286C227.635 35.7862 227.726 35.8151 227.845 35.8151C227.971 35.8151 228.086 35.7843 228.194 35.7216C228.302 35.6582 228.378 35.5811 228.424 35.4914C228.468 35.4006 228.49 35.2829 228.49 35.1383V34.9521ZM230.544 33.359H231.59V33.8523C231.747 33.6502 231.905 33.5071 232.065 33.4203C232.225 33.3332 232.42 33.2896 232.65 33.2896C232.961 33.2896 233.204 33.3861 233.38 33.5771C233.555 33.7685 233.643 34.0637 233.643 34.4634V36.3925H232.515V34.7238C232.515 34.5338 232.48 34.3993 232.412 34.3203C232.344 34.2406 232.249 34.2015 232.125 34.2015C231.99 34.2015 231.879 34.2547 231.795 34.3614C231.71 34.4678 231.668 34.6596 231.668 34.9359V36.3925H230.544V33.359ZM234.596 32.2039H235.744V34.364L236.582 33.359H237.965L236.913 34.4216L238.025 36.3925H236.759L236.165 35.1754L235.744 35.6036V36.3925H234.596V32.2039ZM238.65 35.2272H239.85V36.3925H238.65V35.2272ZM245.919 35.7009H244.495L244.299 36.3925H243.022L244.542 32.2039H245.905L247.426 36.3925H246.118L245.919 35.7009ZM245.657 34.7952L245.21 33.2896L244.765 34.7952H245.657ZM250.219 35.2068L251.286 35.3327C251.228 35.5626 251.131 35.7628 250.997 35.9312C250.862 36.0999 250.691 36.2305 250.482 36.3242C250.274 36.4169 250.008 36.4638 249.687 36.4638C249.376 36.4638 249.116 36.4334 248.91 36.374C248.703 36.3136 248.525 36.2171 248.376 36.0828C248.226 35.9478 248.11 35.7909 248.025 35.6093C247.941 35.4291 247.899 35.1892 247.899 34.8898C247.899 34.578 247.95 34.3176 248.053 34.1099C248.129 33.9577 248.231 33.8208 248.362 33.7002C248.493 33.579 248.627 33.4887 248.765 33.4303C248.984 33.3365 249.264 33.2896 249.606 33.2896C250.085 33.2896 250.449 33.3784 250.7 33.5556C250.951 33.7325 251.128 33.9914 251.229 34.3332L250.172 34.4782C250.139 34.3484 250.078 34.2509 249.991 34.186C249.904 34.1193 249.787 34.087 249.639 34.087C249.454 34.087 249.303 34.1564 249.188 34.2938C249.073 34.4326 249.016 34.6411 249.016 34.921C249.016 35.1706 249.073 35.3597 249.187 35.4895C249.301 35.6193 249.446 35.6834 249.623 35.6834C249.77 35.6834 249.893 35.6445 249.994 35.5666C250.094 35.4887 250.169 35.3689 250.219 35.2068ZM252.096 33.359H253.147V33.8551C253.249 33.6409 253.353 33.4925 253.46 33.4117C253.568 33.3305 253.701 33.2896 253.859 33.2896C254.024 33.2896 254.205 33.3432 254.402 33.4496L254.055 34.2786C253.923 34.2209 253.818 34.1927 253.74 34.1927C253.594 34.1927 253.479 34.2557 253.398 34.3807C253.283 34.5584 253.224 34.8898 253.224 35.3756V36.3925H252.096V33.359ZM254.829 34.884C254.829 34.4216 254.979 34.0395 255.281 33.74C255.583 33.4396 255.99 33.2896 256.503 33.2896C257.09 33.2896 257.534 33.4658 257.833 33.8181C258.075 34.1018 258.195 34.452 258.195 34.8673C258.195 35.3337 258.045 35.7157 257.746 36.0143C257.448 36.3117 257.034 36.4611 256.506 36.4611C256.035 36.4611 255.655 36.3369 255.364 36.0892C255.007 35.7832 254.829 35.3812 254.829 34.884ZM255.954 34.8811C255.954 35.1519 256.007 35.352 256.114 35.4808C256.219 35.6101 256.352 35.6755 256.512 35.6755C256.674 35.6755 256.807 35.611 256.911 35.4837C257.015 35.3558 257.066 35.1519 257.066 34.8692C257.066 34.6067 257.014 34.4109 256.91 34.2822C256.805 34.1543 256.675 34.0901 256.52 34.0901C256.356 34.0901 256.221 34.1553 256.115 34.2849C256.008 34.4157 255.954 34.6148 255.954 34.8811ZM258.819 35.5526L259.934 35.4437C259.98 35.5809 260.044 35.6795 260.127 35.7378C260.21 35.7974 260.32 35.8267 260.459 35.8267C260.609 35.8267 260.726 35.7934 260.809 35.7266C260.873 35.6776 260.905 35.6153 260.905 35.5412C260.905 35.457 260.863 35.3929 260.779 35.3468C260.717 35.3149 260.557 35.2749 260.296 35.227C259.906 35.1556 259.635 35.0914 259.483 35.0313C259.332 34.9704 259.204 34.8692 259.1 34.7265C258.995 34.5844 258.944 34.4213 258.944 34.2384C258.944 34.0383 259 33.8658 259.112 33.7213C259.224 33.5758 259.379 33.468 259.575 33.3967C259.772 33.3255 260.036 33.2894 260.367 33.2894C260.716 33.2894 260.975 33.3177 261.142 33.3721C261.309 33.4275 261.446 33.5135 261.558 33.6295C261.669 33.7456 261.761 33.9028 261.835 34.1005L260.77 34.2099C260.742 34.1124 260.697 34.0412 260.632 33.9956C260.544 33.9337 260.437 33.9039 260.312 33.9039C260.186 33.9039 260.092 33.927 260.035 33.9737C259.977 34.0208 259.948 34.0772 259.948 34.1434C259.948 34.2185 259.985 34.2741 260.059 34.3121C260.132 34.3501 260.292 34.3842 260.538 34.4157C260.912 34.4595 261.19 34.5199 261.371 34.5981C261.554 34.6761 261.693 34.7873 261.789 34.9323C261.887 35.0768 261.934 35.236 261.934 35.4095C261.934 35.5849 261.883 35.7555 261.781 35.9213C261.679 36.0872 261.518 36.2188 261.299 36.3163C261.078 36.4146 260.779 36.4636 260.401 36.4636C259.865 36.4636 259.484 36.3848 259.257 36.2265C259.03 36.0686 258.884 35.8434 258.819 35.5526ZM262.554 35.5526L263.668 35.4437C263.715 35.5809 263.779 35.6795 263.862 35.7378C263.944 35.7974 264.054 35.8267 264.193 35.8267C264.343 35.8267 264.46 35.7934 264.543 35.7266C264.607 35.6776 264.639 35.6153 264.639 35.5412C264.639 35.457 264.597 35.3929 264.513 35.3468C264.452 35.3149 264.291 35.2749 264.03 35.227C263.64 35.1556 263.369 35.0914 263.217 35.0313C263.066 34.9704 262.937 34.8692 262.834 34.7265C262.729 34.5844 262.678 34.4213 262.678 34.2384C262.678 34.0383 262.735 33.8658 262.846 33.7213C262.958 33.5758 263.113 33.468 263.309 33.3967C263.506 33.3255 263.77 33.2894 264.101 33.2894C264.451 33.2894 264.709 33.3177 264.876 33.3721C265.042 33.4275 265.181 33.5135 265.292 33.6295C265.403 33.7456 265.495 33.9028 265.57 34.1005L264.505 34.2099C264.477 34.1124 264.431 34.0412 264.366 33.9956C264.278 33.9337 264.171 33.9039 264.046 33.9039C263.92 33.9039 263.827 33.927 263.769 33.9737C263.71 34.0208 263.683 34.0772 263.683 34.1434C263.683 34.2185 263.719 34.2741 263.792 34.3121C263.866 34.3501 264.026 34.3842 264.273 34.4157C264.646 34.4595 264.923 34.5199 265.105 34.5981C265.288 34.6761 265.428 34.7873 265.524 34.9323C265.621 35.0768 265.669 35.236 265.669 35.4095C265.669 35.5849 265.618 35.7555 265.515 35.9213C265.413 36.0872 265.252 36.2188 265.033 36.3163C264.813 36.4146 264.513 36.4636 264.135 36.4636C263.6 36.4636 263.218 36.3848 262.991 36.2265C262.764 36.0686 262.618 35.8434 262.554 35.5526ZM269.155 32.2037H270.407V36.3923H269.155V32.2037ZM271.512 33.3588H272.558V33.8521C272.715 33.65 272.873 33.5069 273.033 33.42C273.193 33.333 273.388 33.2894 273.618 33.2894C273.929 33.2894 274.171 33.3859 274.348 33.5769C274.523 33.7683 274.61 34.0635 274.61 34.4632V36.3923H273.482V34.7236C273.482 34.5336 273.448 34.3991 273.38 34.3201C273.312 34.2404 273.216 34.2013 273.093 34.2013C272.957 34.2013 272.847 34.2545 272.763 34.3612C272.678 34.4676 272.635 34.6594 272.635 34.9357V36.3923H271.512V33.3588ZM278.648 32.2037V36.3923H277.598V35.9436C277.449 36.1338 277.316 36.2625 277.194 36.33C277.032 36.4167 276.853 36.4608 276.654 36.4608C276.255 36.4608 275.949 36.3036 275.738 35.9899C275.529 35.6755 275.423 35.2935 275.423 34.844C275.423 34.3405 275.539 33.9566 275.772 33.6899C276.005 33.4229 276.301 33.2894 276.659 33.2894C276.834 33.2894 276.992 33.3207 277.135 33.3811C277.277 33.4423 277.403 33.5331 277.515 33.6552V32.2037H278.648ZM277.522 34.8671C277.522 34.6282 277.474 34.4509 277.376 34.3338C277.279 34.2165 277.156 34.158 277.007 34.158C276.876 34.158 276.767 34.2147 276.678 34.3268C276.59 34.4391 276.546 34.6271 276.546 34.8923C276.546 35.1399 276.591 35.3216 276.682 35.4366C276.773 35.5516 276.886 35.6091 277.02 35.6091C277.164 35.6091 277.284 35.5516 277.379 35.4356C277.475 35.3187 277.522 35.1296 277.522 34.8671ZM279.656 32.2037H280.78V32.9955H279.656V32.2037ZM279.656 33.3588H280.78V36.3923H279.656V33.3588ZM282.803 34.3405L281.73 34.2237C281.771 34.0293 281.829 33.8762 281.905 33.765C281.982 33.6539 282.091 33.5573 282.235 33.4757C282.337 33.4163 282.48 33.37 282.66 33.3384C282.84 33.3058 283.034 33.2894 283.244 33.2894C283.581 33.2894 283.852 33.3088 284.055 33.3477C284.259 33.3867 284.43 33.469 284.565 33.5925C284.661 33.6785 284.737 33.7994 284.793 33.9566C284.848 34.1143 284.874 34.2636 284.874 34.4067V35.747C284.874 35.8891 284.884 36.0011 284.901 36.0825C284.919 36.1631 284.956 36.2665 285.016 36.3923H283.962C283.92 36.3144 283.892 36.255 283.879 36.2142C283.866 36.1728 283.854 36.1085 283.84 36.0207C283.694 36.1679 283.547 36.2725 283.402 36.3348C283.203 36.4185 282.972 36.4608 282.71 36.4608C282.36 36.4608 282.094 36.3767 281.913 36.2088C281.732 36.0421 281.641 35.8353 281.641 35.5897C281.641 35.3587 281.707 35.1696 281.838 35.0213C281.968 34.8719 282.209 34.7617 282.56 34.6894C282.982 34.6019 283.255 34.5407 283.38 34.5055C283.505 34.4703 283.637 34.4232 283.777 34.3667C283.777 34.2237 283.748 34.1239 283.692 34.0664C283.634 34.0098 283.534 33.9808 283.39 33.9808C283.207 33.9808 283.069 34.0118 282.977 34.0727C282.906 34.1201 282.847 34.2099 282.803 34.3405ZM283.777 34.9519C283.622 35.0098 283.461 35.0602 283.294 35.1044C283.067 35.1666 282.922 35.2289 282.861 35.2893C282.798 35.3528 282.767 35.4243 282.767 35.5041C282.767 35.5958 282.798 35.6699 282.859 35.7284C282.922 35.786 283.012 35.8149 283.131 35.8149C283.257 35.8149 283.373 35.784 283.481 35.7214C283.588 35.658 283.664 35.5809 283.709 35.4912C283.755 35.4004 283.777 35.2827 283.777 35.1381V34.9519ZM285.833 35.227H287.034V36.3923H285.833V35.227Z"/>
</mask>
<path d="M179.253 32.2042H180.641L181.458 33.6185L182.274 32.2042H183.654L182.081 34.6386V36.3927H180.828V34.6386L179.253 32.2042ZM183.646 34.8842C183.646 34.4218 183.797 34.0397 184.099 33.7402C184.401 33.4398 184.807 33.2898 185.321 33.2898C185.908 33.2898 186.351 33.466 186.65 33.8183C186.892 34.1021 187.012 34.4522 187.012 34.8675C187.012 35.3339 186.862 35.7159 186.564 36.0145C186.265 36.3119 185.852 36.4613 185.324 36.4613C184.852 36.4613 184.472 36.3371 184.182 36.0894C183.824 35.7835 183.646 35.3814 183.646 34.8842ZM184.772 34.8813C184.772 35.1521 184.825 35.3522 184.931 35.481C185.037 35.6103 185.169 35.6757 185.329 35.6757C185.492 35.6757 185.624 35.6112 185.728 35.4839C185.832 35.356 185.884 35.1521 185.884 34.8694C185.884 34.607 185.831 34.4111 185.727 34.2824C185.622 34.1545 185.492 34.0904 185.338 34.0904C185.174 34.0904 185.039 34.1555 184.932 34.2851C184.826 34.4159 184.772 34.615 184.772 34.8813ZM190.923 36.3925H189.874V35.9011C189.718 36.1032 189.561 36.2471 189.402 36.3321C189.242 36.4177 189.046 36.4611 188.815 36.4611C188.506 36.4611 188.263 36.3655 188.088 36.174C187.913 35.9828 187.825 35.6878 187.825 35.2896V33.359H188.953V35.0271C188.953 35.2177 188.987 35.3531 189.055 35.4331C189.124 35.5129 189.219 35.5529 189.342 35.5529C189.476 35.5529 189.586 35.4995 189.672 35.3931C189.757 35.2856 189.8 35.0946 189.8 34.8184V33.359H190.923V36.3925ZM191.897 33.359H192.949V33.8551C193.051 33.6409 193.155 33.4925 193.263 33.4117C193.37 33.3305 193.502 33.2896 193.66 33.2896C193.826 33.2896 194.007 33.3432 194.204 33.4496L193.857 34.2786C193.725 34.2209 193.619 34.1927 193.542 34.1927C193.395 34.1927 193.281 34.2557 193.2 34.3807C193.085 34.5584 193.026 34.8898 193.026 35.3756V36.3925H191.897V33.359ZM197.301 32.2039H200.392V33.1043H198.556V33.8356H200.123V34.6811H198.556V36.3925H197.301V32.2039ZM202.15 34.3407L201.078 34.2239C201.118 34.0295 201.176 33.8765 201.253 33.7652C201.329 33.6542 201.439 33.5575 201.582 33.4759C201.685 33.4165 201.827 33.3702 202.007 33.3386C202.187 33.3061 202.382 33.2896 202.592 33.2896C202.928 33.2896 203.199 33.309 203.403 33.348C203.607 33.3869 203.778 33.4692 203.913 33.5927C204.009 33.6787 204.084 33.7996 204.14 33.9568C204.195 34.1145 204.222 34.2639 204.222 34.4069V35.7472C204.222 35.8893 204.232 36.0013 204.248 36.0828C204.266 36.1634 204.304 36.2667 204.363 36.3925H203.309C203.267 36.3146 203.24 36.2552 203.226 36.2144C203.214 36.173 203.201 36.1088 203.188 36.0209C203.041 36.1681 202.894 36.2727 202.749 36.335C202.55 36.4187 202.319 36.4611 202.057 36.4611C201.708 36.4611 201.442 36.3769 201.26 36.209C201.08 36.0423 200.989 35.8355 200.989 35.5899C200.989 35.3589 201.054 35.1698 201.185 35.0215C201.316 34.8721 201.556 34.7619 201.907 34.6896C202.329 34.6021 202.602 34.5409 202.728 34.5057C202.852 34.4705 202.984 34.4234 203.124 34.367C203.124 34.2239 203.096 34.1241 203.039 34.0666C202.982 34.01 202.882 33.981 202.738 33.981C202.554 33.981 202.417 34.012 202.325 34.0729C202.253 34.1203 202.194 34.2101 202.15 34.3407ZM203.124 34.9521C202.97 35.01 202.808 35.0604 202.642 35.1046C202.414 35.1668 202.269 35.2292 202.209 35.2896C202.146 35.3531 202.115 35.4246 202.115 35.5043C202.115 35.596 202.146 35.6701 202.207 35.7286C202.269 35.7862 202.36 35.8151 202.479 35.8151C202.604 35.8151 202.72 35.7843 202.828 35.7216C202.936 35.6582 203.012 35.5811 203.057 35.4914C203.102 35.4006 203.124 35.2829 203.124 35.1383L203.124 34.9521ZM205.186 33.359H206.235V33.8014C206.386 33.616 206.538 33.4854 206.691 33.4065C206.845 33.3286 207.03 33.2896 207.248 33.2896C207.481 33.2896 207.666 33.3323 207.801 33.4184C207.939 33.504 208.049 33.6317 208.136 33.8014C208.312 33.6038 208.473 33.4682 208.619 33.3969C208.764 33.3257 208.943 33.2896 209.157 33.2896C209.471 33.2896 209.717 33.3861 209.893 33.5805C210.07 33.7733 210.158 34.0755 210.158 34.4872V36.3925H209.033V34.6644C209.033 34.5272 209.007 34.4245 208.955 34.3584C208.879 34.2539 208.785 34.2015 208.674 34.2015C208.542 34.2015 208.434 34.2509 208.353 34.3495C208.273 34.4493 208.233 34.608 208.233 34.8276V36.3925H207.107V34.7211C207.107 34.5876 207.099 34.4975 207.085 34.4501C207.061 34.3741 207.019 34.3124 206.961 34.2658C206.902 34.2187 206.833 34.1953 206.753 34.1953C206.624 34.1953 206.519 34.2462 206.436 34.3465C206.353 34.4482 206.312 34.6136 206.312 34.8442V36.3925H205.186V33.359ZM211.152 32.2039H212.276V32.9957H211.152V32.2039ZM211.152 33.359H212.276V36.3925H211.152V33.359ZM213.314 32.2039H214.44V36.3925H213.314V32.2039ZM215.212 33.359H216.398L217.002 35.3783L217.563 33.359H218.669L217.507 36.6013C217.375 36.971 217.239 37.2205 217.101 37.3493C216.906 37.5328 216.61 37.624 216.21 37.624C216.048 37.624 215.799 37.6007 215.46 37.555L215.372 36.7437C215.533 36.7975 215.714 36.8237 215.913 36.8237C216.044 36.8237 216.152 36.7923 216.234 36.7299C216.316 36.6668 216.385 36.5546 216.442 36.3925L215.212 33.359ZM221.892 32.2039H224.232C224.622 32.2039 224.922 32.3048 225.13 32.5043C225.339 32.7045 225.444 32.9522 225.444 33.2467C225.444 33.4944 225.369 33.7068 225.22 33.8845C225.121 34.0025 224.976 34.0959 224.784 34.1645C225.075 34.2362 225.288 34.3614 225.426 34.5366C225.563 34.7134 225.631 34.9348 225.631 35.201C225.631 35.4183 225.582 35.6137 225.485 35.787C225.387 35.9605 225.254 36.0969 225.085 36.1986C224.98 36.2609 224.822 36.3065 224.611 36.335C224.328 36.3732 224.142 36.3925 224.05 36.3925H221.892V32.2039ZM223.153 33.8475H223.697C223.892 33.8475 224.027 33.8123 224.105 33.7429C224.181 33.6725 224.219 33.5723 224.219 33.4417C224.219 33.32 224.181 33.2244 224.105 33.1559C224.027 33.0866 223.895 33.0524 223.705 33.0524H223.153V33.8475ZM223.153 35.4925H223.791C224.006 35.4925 224.159 35.4535 224.245 35.3745C224.334 35.2956 224.378 35.1892 224.378 35.0557C224.378 34.9315 224.335 34.8323 224.248 34.7571C224.16 34.6821 224.007 34.644 223.788 34.644H223.153V35.4925ZM227.516 34.3407L226.444 34.2239C226.484 34.0295 226.543 33.8765 226.619 33.7652C226.695 33.6542 226.805 33.5575 226.949 33.4759C227.051 33.4165 227.193 33.3702 227.373 33.3386C227.553 33.3061 227.748 33.2896 227.958 33.2896C228.295 33.2896 228.566 33.309 228.769 33.348C228.974 33.3869 229.144 33.4692 229.28 33.5927C229.376 33.6787 229.45 33.7996 229.507 33.9568C229.561 34.1145 229.589 34.2639 229.589 34.4069V35.7472C229.589 35.8893 229.598 36.0013 229.615 36.0828C229.632 36.1634 229.671 36.2667 229.73 36.3925H228.676C228.633 36.3146 228.606 36.2552 228.593 36.2144C228.58 36.173 228.568 36.1088 228.554 36.0209C228.407 36.1681 228.26 36.2727 228.116 36.335C227.916 36.4187 227.686 36.4611 227.423 36.4611C227.074 36.4611 226.809 36.3769 226.627 36.209C226.446 36.0423 226.355 35.8355 226.355 35.5899C226.355 35.3589 226.42 35.1698 226.551 35.0215C226.682 34.8721 226.922 34.7619 227.274 34.6896C227.696 34.6021 227.969 34.5409 228.094 34.5057C228.218 34.4705 228.351 34.4234 228.49 34.367C228.49 34.2239 228.462 34.1241 228.406 34.0666C228.348 34.01 228.248 33.981 228.104 33.981C227.92 33.981 227.783 34.012 227.691 34.0729C227.619 34.1203 227.56 34.2101 227.516 34.3407ZM228.49 34.9521C228.336 35.01 228.175 35.0604 228.008 35.1046C227.781 35.1668 227.635 35.2292 227.575 35.2896C227.512 35.3531 227.481 35.4246 227.481 35.5043C227.481 35.596 227.512 35.6701 227.573 35.7286C227.635 35.7862 227.726 35.8151 227.845 35.8151C227.971 35.8151 228.086 35.7843 228.194 35.7216C228.302 35.6582 228.378 35.5811 228.424 35.4914C228.468 35.4006 228.49 35.2829 228.49 35.1383V34.9521ZM230.544 33.359H231.59V33.8523C231.747 33.6502 231.905 33.5071 232.065 33.4203C232.225 33.3332 232.42 33.2896 232.65 33.2896C232.961 33.2896 233.204 33.3861 233.38 33.5771C233.555 33.7685 233.643 34.0637 233.643 34.4634V36.3925H232.515V34.7238C232.515 34.5338 232.48 34.3993 232.412 34.3203C232.344 34.2406 232.249 34.2015 232.125 34.2015C231.99 34.2015 231.879 34.2547 231.795 34.3614C231.71 34.4678 231.668 34.6596 231.668 34.9359V36.3925H230.544V33.359ZM234.596 32.2039H235.744V34.364L236.582 33.359H237.965L236.913 34.4216L238.025 36.3925H236.759L236.165 35.1754L235.744 35.6036V36.3925H234.596V32.2039ZM238.65 35.2272H239.85V36.3925H238.65V35.2272ZM245.919 35.7009H244.495L244.299 36.3925H243.022L244.542 32.2039H245.905L247.426 36.3925H246.118L245.919 35.7009ZM245.657 34.7952L245.21 33.2896L244.765 34.7952H245.657ZM250.219 35.2068L251.286 35.3327C251.228 35.5626 251.131 35.7628 250.997 35.9312C250.862 36.0999 250.691 36.2305 250.482 36.3242C250.274 36.4169 250.008 36.4638 249.687 36.4638C249.376 36.4638 249.116 36.4334 248.91 36.374C248.703 36.3136 248.525 36.2171 248.376 36.0828C248.226 35.9478 248.11 35.7909 248.025 35.6093C247.941 35.4291 247.899 35.1892 247.899 34.8898C247.899 34.578 247.95 34.3176 248.053 34.1099C248.129 33.9577 248.231 33.8208 248.362 33.7002C248.493 33.579 248.627 33.4887 248.765 33.4303C248.984 33.3365 249.264 33.2896 249.606 33.2896C250.085 33.2896 250.449 33.3784 250.7 33.5556C250.951 33.7325 251.128 33.9914 251.229 34.3332L250.172 34.4782C250.139 34.3484 250.078 34.2509 249.991 34.186C249.904 34.1193 249.787 34.087 249.639 34.087C249.454 34.087 249.303 34.1564 249.188 34.2938C249.073 34.4326 249.016 34.6411 249.016 34.921C249.016 35.1706 249.073 35.3597 249.187 35.4895C249.301 35.6193 249.446 35.6834 249.623 35.6834C249.77 35.6834 249.893 35.6445 249.994 35.5666C250.094 35.4887 250.169 35.3689 250.219 35.2068ZM252.096 33.359H253.147V33.8551C253.249 33.6409 253.353 33.4925 253.46 33.4117C253.568 33.3305 253.701 33.2896 253.859 33.2896C254.024 33.2896 254.205 33.3432 254.402 33.4496L254.055 34.2786C253.923 34.2209 253.818 34.1927 253.74 34.1927C253.594 34.1927 253.479 34.2557 253.398 34.3807C253.283 34.5584 253.224 34.8898 253.224 35.3756V36.3925H252.096V33.359ZM254.829 34.884C254.829 34.4216 254.979 34.0395 255.281 33.74C255.583 33.4396 255.99 33.2896 256.503 33.2896C257.09 33.2896 257.534 33.4658 257.833 33.8181C258.075 34.1018 258.195 34.452 258.195 34.8673C258.195 35.3337 258.045 35.7157 257.746 36.0143C257.448 36.3117 257.034 36.4611 256.506 36.4611C256.035 36.4611 255.655 36.3369 255.364 36.0892C255.007 35.7832 254.829 35.3812 254.829 34.884ZM255.954 34.8811C255.954 35.1519 256.007 35.352 256.114 35.4808C256.219 35.6101 256.352 35.6755 256.512 35.6755C256.674 35.6755 256.807 35.611 256.911 35.4837C257.015 35.3558 257.066 35.1519 257.066 34.8692C257.066 34.6067 257.014 34.4109 256.91 34.2822C256.805 34.1543 256.675 34.0901 256.52 34.0901C256.356 34.0901 256.221 34.1553 256.115 34.2849C256.008 34.4157 255.954 34.6148 255.954 34.8811ZM258.819 35.5526L259.934 35.4437C259.98 35.5809 260.044 35.6795 260.127 35.7378C260.21 35.7974 260.32 35.8267 260.459 35.8267C260.609 35.8267 260.726 35.7934 260.809 35.7266C260.873 35.6776 260.905 35.6153 260.905 35.5412C260.905 35.457 260.863 35.3929 260.779 35.3468C260.717 35.3149 260.557 35.2749 260.296 35.227C259.906 35.1556 259.635 35.0914 259.483 35.0313C259.332 34.9704 259.204 34.8692 259.1 34.7265C258.995 34.5844 258.944 34.4213 258.944 34.2384C258.944 34.0383 259 33.8658 259.112 33.7213C259.224 33.5758 259.379 33.468 259.575 33.3967C259.772 33.3255 260.036 33.2894 260.367 33.2894C260.716 33.2894 260.975 33.3177 261.142 33.3721C261.309 33.4275 261.446 33.5135 261.558 33.6295C261.669 33.7456 261.761 33.9028 261.835 34.1005L260.77 34.2099C260.742 34.1124 260.697 34.0412 260.632 33.9956C260.544 33.9337 260.437 33.9039 260.312 33.9039C260.186 33.9039 260.092 33.927 260.035 33.9737C259.977 34.0208 259.948 34.0772 259.948 34.1434C259.948 34.2185 259.985 34.2741 260.059 34.3121C260.132 34.3501 260.292 34.3842 260.538 34.4157C260.912 34.4595 261.19 34.5199 261.371 34.5981C261.554 34.6761 261.693 34.7873 261.789 34.9323C261.887 35.0768 261.934 35.236 261.934 35.4095C261.934 35.5849 261.883 35.7555 261.781 35.9213C261.679 36.0872 261.518 36.2188 261.299 36.3163C261.078 36.4146 260.779 36.4636 260.401 36.4636C259.865 36.4636 259.484 36.3848 259.257 36.2265C259.03 36.0686 258.884 35.8434 258.819 35.5526ZM262.554 35.5526L263.668 35.4437C263.715 35.5809 263.779 35.6795 263.862 35.7378C263.944 35.7974 264.054 35.8267 264.193 35.8267C264.343 35.8267 264.46 35.7934 264.543 35.7266C264.607 35.6776 264.639 35.6153 264.639 35.5412C264.639 35.457 264.597 35.3929 264.513 35.3468C264.452 35.3149 264.291 35.2749 264.03 35.227C263.64 35.1556 263.369 35.0914 263.217 35.0313C263.066 34.9704 262.937 34.8692 262.834 34.7265C262.729 34.5844 262.678 34.4213 262.678 34.2384C262.678 34.0383 262.735 33.8658 262.846 33.7213C262.958 33.5758 263.113 33.468 263.309 33.3967C263.506 33.3255 263.77 33.2894 264.101 33.2894C264.451 33.2894 264.709 33.3177 264.876 33.3721C265.042 33.4275 265.181 33.5135 265.292 33.6295C265.403 33.7456 265.495 33.9028 265.57 34.1005L264.505 34.2099C264.477 34.1124 264.431 34.0412 264.366 33.9956C264.278 33.9337 264.171 33.9039 264.046 33.9039C263.92 33.9039 263.827 33.927 263.769 33.9737C263.71 34.0208 263.683 34.0772 263.683 34.1434C263.683 34.2185 263.719 34.2741 263.792 34.3121C263.866 34.3501 264.026 34.3842 264.273 34.4157C264.646 34.4595 264.923 34.5199 265.105 34.5981C265.288 34.6761 265.428 34.7873 265.524 34.9323C265.621 35.0768 265.669 35.236 265.669 35.4095C265.669 35.5849 265.618 35.7555 265.515 35.9213C265.413 36.0872 265.252 36.2188 265.033 36.3163C264.813 36.4146 264.513 36.4636 264.135 36.4636C263.6 36.4636 263.218 36.3848 262.991 36.2265C262.764 36.0686 262.618 35.8434 262.554 35.5526ZM269.155 32.2037H270.407V36.3923H269.155V32.2037ZM271.512 33.3588H272.558V33.8521C272.715 33.65 272.873 33.5069 273.033 33.42C273.193 33.333 273.388 33.2894 273.618 33.2894C273.929 33.2894 274.171 33.3859 274.348 33.5769C274.523 33.7683 274.61 34.0635 274.61 34.4632V36.3923H273.482V34.7236C273.482 34.5336 273.448 34.3991 273.38 34.3201C273.312 34.2404 273.216 34.2013 273.093 34.2013C272.957 34.2013 272.847 34.2545 272.763 34.3612C272.678 34.4676 272.635 34.6594 272.635 34.9357V36.3923H271.512V33.3588ZM278.648 32.2037V36.3923H277.598V35.9436C277.449 36.1338 277.316 36.2625 277.194 36.33C277.032 36.4167 276.853 36.4608 276.654 36.4608C276.255 36.4608 275.949 36.3036 275.738 35.9899C275.529 35.6755 275.423 35.2935 275.423 34.844C275.423 34.3405 275.539 33.9566 275.772 33.6899C276.005 33.4229 276.301 33.2894 276.659 33.2894C276.834 33.2894 276.992 33.3207 277.135 33.3811C277.277 33.4423 277.403 33.5331 277.515 33.6552V32.2037H278.648ZM277.522 34.8671C277.522 34.6282 277.474 34.4509 277.376 34.3338C277.279 34.2165 277.156 34.158 277.007 34.158C276.876 34.158 276.767 34.2147 276.678 34.3268C276.59 34.4391 276.546 34.6271 276.546 34.8923C276.546 35.1399 276.591 35.3216 276.682 35.4366C276.773 35.5516 276.886 35.6091 277.02 35.6091C277.164 35.6091 277.284 35.5516 277.379 35.4356C277.475 35.3187 277.522 35.1296 277.522 34.8671ZM279.656 32.2037H280.78V32.9955H279.656V32.2037ZM279.656 33.3588H280.78V36.3923H279.656V33.3588ZM282.803 34.3405L281.73 34.2237C281.771 34.0293 281.829 33.8762 281.905 33.765C281.982 33.6539 282.091 33.5573 282.235 33.4757C282.337 33.4163 282.48 33.37 282.66 33.3384C282.84 33.3058 283.034 33.2894 283.244 33.2894C283.581 33.2894 283.852 33.3088 284.055 33.3477C284.259 33.3867 284.43 33.469 284.565 33.5925C284.661 33.6785 284.737 33.7994 284.793 33.9566C284.848 34.1143 284.874 34.2636 284.874 34.4067V35.747C284.874 35.8891 284.884 36.0011 284.901 36.0825C284.919 36.1631 284.956 36.2665 285.016 36.3923H283.962C283.92 36.3144 283.892 36.255 283.879 36.2142C283.866 36.1728 283.854 36.1085 283.84 36.0207C283.694 36.1679 283.547 36.2725 283.402 36.3348C283.203 36.4185 282.972 36.4608 282.71 36.4608C282.36 36.4608 282.094 36.3767 281.913 36.2088C281.732 36.0421 281.641 35.8353 281.641 35.5897C281.641 35.3587 281.707 35.1696 281.838 35.0213C281.968 34.8719 282.209 34.7617 282.56 34.6894C282.982 34.6019 283.255 34.5407 283.38 34.5055C283.505 34.4703 283.637 34.4232 283.777 34.3667C283.777 34.2237 283.748 34.1239 283.692 34.0664C283.634 34.0098 283.534 33.9808 283.39 33.9808C283.207 33.9808 283.069 34.0118 282.977 34.0727C282.906 34.1201 282.847 34.2099 282.803 34.3405ZM283.777 34.9519C283.622 35.0098 283.461 35.0602 283.294 35.1044C283.067 35.1666 282.922 35.2289 282.861 35.2893C282.798 35.3528 282.767 35.4243 282.767 35.5041C282.767 35.5958 282.798 35.6699 282.859 35.7284C282.922 35.786 283.012 35.8149 283.131 35.8149C283.257 35.8149 283.373 35.784 283.481 35.7214C283.588 35.658 283.664 35.5809 283.709 35.4912C283.755 35.4004 283.777 35.2827 283.777 35.1381V34.9519ZM285.833 35.227H287.034V36.3923H285.833V35.227Z" fill="#92278F" stroke="#92278F" stroke-width="2.94253" mask="url(#path-2-inside-1_5230_929)"/>
<path d="M30.8603 25.3951L31.5536 26.5173H30.2345H24.8532H23.5473L24.224 25.4005L26.8885 21.003L27.5116 19.9747L28.1435 20.9976L30.8603 25.3951ZM30.2293 11.4077H31.5618L30.8518 12.5353L28.1382 16.8447L27.5136 17.8365L26.892 16.8428L24.1963 12.5334L23.4921 11.4077H24.82H30.2293ZM16.9377 4.91412L17.5624 3.8946L18.1908 4.91182L20.8929 9.28578L21.5862 10.408H20.2671H14.8849H13.5714L14.2577 9.28807L16.9377 4.91412ZM4.33243 12.5295L3.64041 11.4077H4.95853H10.2944H11.609L10.9214 12.5281L8.26022 16.8641L7.63485 17.8831L7.00716 16.8656L4.33243 12.5295ZM4.96008 26.5542L3.6403 26.5623L4.32754 25.4355L7.00603 21.0441L7.63331 20.0156L8.26168 21.0434L10.9266 25.4022L11.6061 26.5135L10.3035 26.5215L4.96008 26.5542ZM17.6075 36.2082L22.7223 27.9076L22.9378 27.5578H23.3486H33.5127L28.4613 19.3368L28.2239 18.9503L28.4625 18.5646L33.5088 10.408H23.3488H22.9376L22.7222 10.0577L17.6075 1.73828L12.4927 10.0577L12.2773 10.408H11.866H1.70587L6.75192 18.5647L6.99053 18.9503L6.75311 19.3368L1.70198 27.5578H11.8663H12.277L12.4925 27.9076L17.6075 36.2082ZM12.7506 11.8264L12.968 11.4901H13.3684H21.846H22.2464L22.4638 11.8263L26.814 18.5544L27.0711 18.9521L26.8155 19.3508L22.4653 26.1375L22.2483 26.4761H21.846H13.3684H12.9661L12.7491 26.1374L8.3991 19.3508L8.14356 18.9521L8.40068 18.5544L12.7506 11.8264ZM18.23 33.0158L17.6089 34.027L16.9795 33.0209L14.2667 28.6836L13.5626 27.5578H14.8904H20.2675H21.5828L20.8944 28.6785L18.23 33.0158ZM19.0213 17.5222L18.9697 17.4739C18.5458 17.0768 17.9542 16.825 17.2956 16.825C16.6418 16.825 16.0536 17.0733 15.6305 17.4656L15.6297 17.4664L15.6217 17.4738C15.1988 17.8699 14.9504 18.4013 14.9504 18.9726C14.9504 19.5443 15.1993 20.0763 15.6232 20.4728L15.6726 20.519C16.091 20.8879 16.6617 21.1203 17.2956 21.1203C17.9293 21.1203 18.5001 20.8881 18.9184 20.5197L18.9697 20.4716C19.3922 20.0759 19.6409 19.5447 19.6409 18.9728C19.6409 18.4228 19.412 17.9114 19.0213 17.5222Z" fill="#92278F" stroke="#92278F" stroke-width="1.47126"/>
</svg>
